#File generated from solving marker data for model walk1.trc
name solved_motion
datacolumns 107
datarows 8
range 0.6250000000 0.6830000000
units unknown
enforce_loops no
enforce_constraints no
endheader

time	lower_torso_TX	lower_torso_TY	lower_torso_TZ	lower_torso_RX	lower_torso_RY	lower_torso_RZ	lumbar_roll	lumbar_yaw	lumbar_pitch	neck_roll	neck_yaw	neck_pitch	arm_add_r	arm_rot_r	arm_flex_r	elbow_flex_r	pro_sup_r	wrist_dev_r	wrist_flex_r	arm_add_l	arm_rot_l	arm_flex_l	elbow_flex_l	pro_sup_l	wrist_dev_l	wrist_flex_l	hip_add_r	hip_rot_r	hip_flex_r	ankle_flex_r	subt_angle_r	toe_angle_r	hip_add_l	hip_rot_l	hip_flex_l	knee_flex_l	ankle_flex_l	subt_angle_l	toe_angle_l	knee_flex_r	R.Shoulder_px	R.Shoulder_py	R.Shoulder_pz	R.Scapula_px	R.Scapula_py	R.Scapula_pz	L.Shoulder_px	L.Shoulder_py	L.Shoulder_pz	R.ASIS_px	R.ASIS_py	R.ASIS_pz	V.Sacral_px	V.Sacral_py	V.Sacral_pz	L.ASIS_px	L.ASIS_py	L.ASIS_pz	R.Elbow_px	R.Elbow_py	R.Elbow_pz	R.Wrist_px	R.Wrist_py	R.Wrist_pz	L.Elbow_px	L.Elbow_py	L.Elbow_pz	L.Wrist_px	L.Wrist_py	L.Wrist_pz	R.Thigh_px	R.Thigh_py	R.Thigh_pz	R.Knee_px	R.Knee_py	R.Knee_pz	R.Shank_px	R.Shank_py	R.Shank_pz	R.Ankle_px	R.Ankle_py	R.Ankle_pz	R.Heel_px	R.Heel_py	R.Heel_pz	R.Toe_px	R.Toe_py	R.Toe_pz	L.Thigh_px	L.Thigh_py	L.Thigh_pz	L.Knee_px	L.Knee_py	L.Knee_pz	L.Shank_px	L.Shank_py	L.Shank_pz	L.Ankle_px	L.Ankle_py	L.Ankle_pz	L.Heel_px	L.Heel_py	L.Heel_pz	L.Toe_px	L.Toe_py	L.Toe_pz	
0.6250000000	-0.9280749495	0.2835305245	0.7344684116	94.2645314511	-11.4663822332	5.7152045072	-4.2782281066	10.9677262938	-26.8512870597	0.0000000000	0.0000000000	0.0000000000	-45.9998905234	-10.0000000000	20.3479694727	38.2076000236	50.0000000026	0.0000000000	0.0000000000	-25.9634581289	10.0000000000	8.0367485325	32.6106112880	50.0000000000	0.0000000000	0.0000000000	0.6092948312	20.4139725674	32.3802111011	30.0000000000	17.4599065625	0.0000000000	2.4596250655	8.6134067395	49.5999662322	102.7825276905	14.9021292428	10.2139275947	-0.0150000000	94.2160279865	-0.8856715700	0.0359754300	1.1197111800	-1.0521375700	0.1788591500	1.1315291700	-0.9095637200	0.4928795800	1.1728332500	-0.9246778000	0.1427514500	0.7512467700	-1.1323098100	0.3195053100	0.8045441300	-0.8808950800	0.4175794100	0.7479038100	-0.9318672500	-0.1172782700	0.9016865200	-0.7252990700	-0.2022231600	0.8017044100	-0.9921138300	0.6375340000	0.9424744900	-0.8723936800	0.7163901400	0.7287315100	-0.8792132600	0.0652023500	0.4236979100	-0.8087008100	0.1439385700	0.3081786500	-0.9360956400	0.0520361700	0.1790886200	-1.1378105500	0.0919294800	0.0842049600	-1.2025582300	0.1156920400	0.1083461500	-1.0540268600	0.1562871700	0.0441397800	-0.7076541700	0.4674244100	0.4661330000	-0.6817038000	0.3863671600	0.4080488900	-0.8306884800	0.5416134000	0.2214655800	-0.9485174000	0.5222874100	0.1303232700	-1.0265882600	0.5069714700	0.1519270600	-0.8861580200	0.4510120800	0.0675133000	
0.6330000000	-0.9265570150	0.2839565037	0.7344154703	93.7949644887	-10.6647232093	5.5906368022	-3.8999696182	10.5224599929	-27.4420661609	0.0000000000	0.0000000000	0.0000000000	-46.3861825784	-10.0000000000	21.5721480982	37.4216141133	50.0000000026	0.0000000000	0.0000000000	-26.7555533519	10.0000000000	7.9301602059	32.0736739583	50.0000000000	0.0000000000	0.0000000000	0.4301440071	19.1600809388	32.2793551360	30.0000000000	17.6736072733	0.0000000000	3.3222451080	10.2953052233	50.9981434434	101.8561848584	14.5855722852	11.0761997855	-0.0160000000	94.3197727298	-0.8792517100	0.0369584000	1.1207946800	-1.0456773700	0.1800346700	1.1315596900	-0.9033991700	0.4944079900	1.1728319100	-0.9209219400	0.1423389000	0.7506466100	-1.1238521700	0.3213508600	0.8048289200	-0.8815656100	0.4186466700	0.7467033100	-0.9204000900	-0.1162159300	0.9012656900	-0.7146270800	-0.2003165900	0.8024331700	-0.9898539400	0.6387350500	0.9440327800	-0.8754539800	0.7228275100	0.7295698200	-0.8766769400	0.0643138200	0.4220032300	-0.8069576400	0.1408366100	0.3066237800	-0.9366619900	0.0504659800	0.1796036700	-1.1378997800	0.0941827000	0.0854011800	-1.2031654100	0.1153433200	0.1106210700	-1.0527775900	0.1567566500	0.0444002500	-0.6949950000	0.4635034800	0.4697437400	-0.6784961500	0.3825291100	0.4101232600	-0.8105632900	0.5402362700	0.2203061200	-0.9288447900	0.5170752600	0.1277330700	-1.0081384300	0.5090331100	0.1479059300	-0.8652472500	0.4473548900	0.0666143700	
0.6420000000	-0.9219325585	0.2832670021	0.7350450763	93.1353147318	-10.5439458936	6.0238113896	-3.7312357558	11.4208501061	-28.5908047429	0.0000000000	0.0000000000	0.0000000000	-46.9641589952	-10.0000000000	20.6484595392	39.2865220775	50.0000000026	0.0000000000	0.0000000000	-27.0793572600	10.0000000000	8.1099362109	31.9106300137	50.0000000000	0.0000000000	0.0000000000	0.8922515904	18.4829467522	31.1447759112	30.0000000000	17.7561968065	0.0000000000	2.8329206482	11.2191533338	51.5848591537	101.2451986686	14.3705344644	13.3466730621	-0.0170000000	94.1868314889	-0.8616935400	0.0437350000	1.1178929400	-1.0386367200	0.1813399700	1.1320860600	-0.8980600000	0.4946151700	1.1727529300	-0.9136762700	0.1428940900	0.7509366500	-1.1176782200	0.3233912000	0.8035872200	-0.8774449500	0.4180466600	0.7459041100	-0.9107503100	-0.1160332000	0.9009125400	-0.7020220900	-0.1963211500	0.8038070700	-0.9860404700	0.6396124900	0.9455387600	-0.8776333600	0.7259857200	0.7294831500	-0.8728464400	0.0644097000	0.4206280500	-0.8057720300	0.1386491100	0.3045650900	-0.9354974400	0.0497402100	0.1787881300	-1.1376771200	0.0937645900	0.0870171800	-1.2015268600	0.1163090500	0.1111043500	-1.0528342300	0.1571628600	0.0441980500	-0.6850609700	0.4622109700	0.4731114500	-0.6583294700	0.3806103200	0.4164110700	-0.7932551900	0.5369400000	0.2196229900	-0.9067214400	0.5164992100	0.1242579200	-0.9906787700	0.5095148000	0.1429858100	-0.8471917700	0.4445163600	0.0663350000	
0.6500000000	-0.9121958466	0.2825699165	0.7344889671	93.9759434296	-11.8256792762	6.2280949155	-4.9222171522	12.7596916683	-27.9448939252	0.0000000000	0.0000000000	0.0000000000	-47.0721755370	-10.0000000000	20.1709182201	39.3787843829	50.0000000026	0.0000000000	0.0000000000	-26.9240162454	10.0000000000	7.3448033460	31.4793917665	50.0000000000	0.0000000000	0.0000000000	0.2947900090	19.9535439615	30.6206990265	30.0000000000	19.8378894150	0.0000000000	3.1478350180	10.4997455390	51.6514364469	100.3713158992	15.1810738833	11.3432430643	-0.0180000000	94.4418357962	-0.8565299100	0.0442569600	1.1185925300	-1.0310537100	0.1804395000	1.1312949200	-0.8925534700	0.4963067600	1.1725410200	-0.9080289900	0.1436634100	0.7502102100	-1.1098278800	0.3251773100	0.8037479900	-0.8645621900	0.4162127100	0.7473392300	-0.9033207400	-0.1159165000	0.9032542700	-0.6906793200	-0.1955086100	0.8045451700	-0.9846840800	0.6401480700	0.9467238200	-0.8770678700	0.7306910400	0.7288942900	-0.8695498000	0.0638562700	0.4193940100	-0.7980483400	0.1393317100	0.3012041600	-0.9356657100	0.0495262700	0.1786814700	-1.1372878400	0.0937909900	0.0883816700	-1.1989744900	0.1156073500	0.1127165100	-1.0529129600	0.1575737600	0.0445401500	-0.6755263700	0.4576201800	0.4765805100	-0.6454072900	0.3740258800	0.4184127800	-0.7749182100	0.5349397600	0.2188936000	-0.8909801000	0.5172608000	0.1216280700	-0.9712141100	0.5105040000	0.1377740300	-0.8245352800	0.4436507000	0.0648274900	
0.6580000000	-0.9048435543	0.2832211763	0.7345136200	93.9363025992	-12.3326102146	6.1720295880	-5.1004905170	13.6482142109	-27.7764183264	0.0000000000	0.0000000000	0.0000000000	-46.9389232124	-10.0000000000	20.9451494319	38.6715034185	50.0000000026	0.0000000000	0.0000000000	-26.6747425372	10.0000000000	6.9007223201	30.5486158766	50.0000000000	0.0000000000	0.0000000000	0.0430107483	19.9151840481	30.1831943941	30.0000000000	18.7390388921	0.0000000000	3.1927003038	10.6908795761	52.0868629132	99.4850381717	15.6919715129	11.2210858370	-0.0190000000	94.4028584341	-0.8489006300	0.0466415700	1.1176938500	-1.0230944800	0.1824291700	1.1313851300	-0.8866200600	0.4978352400	1.1720521200	-0.9029179700	0.1439083100	0.7506179800	-1.1025053700	0.3267864700	0.8027827100	-0.8559520300	0.4164958500	0.7472176500	-0.8891781600	-0.1134292400	0.9005883800	-0.6774415300	-0.1899826500	0.8040882600	-0.9809252900	0.6407132000	0.9473706700	-0.8798825700	0.7338642000	0.7302395600	-0.8669516600	0.0625346200	0.4181116900	-0.8000784900	0.1359951200	0.3001190800	-0.9306209700	0.0494778300	0.1767926300	-1.1344429900	0.0954185900	0.0895125200	-1.2012662400	0.1188700300	0.1160628700	-1.0527819800	0.1577312000	0.0444518500	-0.6658911700	0.4542226600	0.4796503900	-0.6401912200	0.3728244000	0.4205508100	-0.7588186600	0.5326707200	0.2181364400	-0.8747328500	0.5167009900	0.1201271500	-0.9527220500	0.5104191000	0.1319844200	-0.8060345500	0.4415269500	0.0640533000	
0.6670000000	-0.8959230283	0.2864086229	0.7336501948	94.3656866030	-12.7336685121	6.1727167543	-5.3356115310	14.3060660250	-27.2517383390	0.0000000000	0.0000000000	0.0000000000	-47.5559321210	-10.0000000000	20.1164915359	39.3747036173	50.0000000026	0.0000000000	0.0000000000	-26.2252396192	10.0000000000	6.2213830377	30.2204827212	50.0000000000	0.0000000000	0.0000000000	-0.9715441150	20.5585099137	29.7169262117	30.0000000000	19.7569860237	0.0000000000	4.3306246245	10.8184976126	52.5369748205	98.4133068192	15.5459006814	9.8987820534	-0.0200000000	94.5151463445	-0.8410031700	0.0473077900	1.1167982200	-1.0163324000	0.1825792100	1.1312546400	-0.8820673200	0.4975130900	1.1723721900	-0.8984028900	0.1429411600	0.7505257000	-1.0950098900	0.3294169000	0.8023860500	-0.8459487300	0.4194260300	0.7473231200	-0.8821412400	-0.1134805500	0.9015110500	-0.6687693500	-0.1884335900	0.8056007100	-0.9783759800	0.6426810300	0.9493311200	-0.8795470600	0.7374724700	0.7297121600	-0.8625979600	0.0615990400	0.4162805200	-0.7939372600	0.1371234400	0.2971072400	-0.9297915000	0.0489050300	0.1765399200	-1.1362951700	0.0935010100	0.0916390100	-1.1999707000	0.1197247100	0.1172963600	-1.0535648200	0.1573091100	0.0446878800	-0.6586925700	0.4502034600	0.4808676100	-0.6272104500	0.3663400000	0.4250336600	-0.7408768300	0.5293345300	0.2172249100	-0.8523356300	0.5181585100	0.1147495100	-0.9339715000	0.5098188500	0.1263439900	-0.7870954000	0.4389024000	0.0623160800	
0.6750000000	-0.8868873747	0.2871570038	0.7332440971	94.5598228505	-13.5063723320	6.2029948495	-5.7566087913	15.2204937113	-26.8566351751	0.0000000000	0.0000000000	0.0000000000	-47.4663343478	-10.0000000000	19.9290686175	39.9085210398	50.0000000026	0.0000000000	0.0000000000	-26.0588574734	10.0000000000	5.8497326335	28.0192063427	50.0000000000	0.0000000000	0.0000000000	-1.5553885092	20.8205950276	29.3259964172	30.0000000000	20.0000000000	0.0000000000	4.2933987338	10.3083709222	52.7605972043	97.6641008612	15.4990736265	7.6791902184	-0.0210000000	94.4048927972	-0.8333433800	0.0492240200	1.1177678200	-1.0103209200	0.1840587200	1.1304931600	-0.8733354500	0.5012662400	1.1711232900	-0.8919418900	0.1427902800	0.7503382000	-1.0879454300	0.3316431300	0.8014231000	-0.8350132400	0.4195156300	0.7473219000	-0.8736067500	-0.1117798500	0.9024765600	-0.6574116200	-0.1842973500	0.8061427600	-0.9727006200	0.6428543700	0.9487579300	-0.8829211400	0.7445065900	0.7312626300	-0.8602045900	0.0606071800	0.4159287100	-0.7930387600	0.1349632900	0.2950168500	-0.9299618500	0.0473369900	0.1756819300	-1.1333710900	0.0963601200	0.0915015900	-1.1975072000	0.1203856200	0.1190679900	-1.0523602300	0.1575786100	0.0447577900	-0.6449977400	0.4487337300	0.4826869500	-0.6200327100	0.3651410200	0.4264190700	-0.7244376800	0.5265341200	0.2170632800	-0.8383549200	0.5141132800	0.1119422600	-0.9179966400	0.5080564300	0.1208971000	-0.7694222400	0.4377534800	0.0601647600	
0.6830000000	-0.8819131199	0.2857663255	0.7330828557	94.5396844615	-13.5405751301	6.5195502421	-6.0537255419	15.5169868560	-27.1234727885	0.0000000000	0.0000000000	0.0000000000	-47.1113288649	-10.0000000000	21.0877898317	38.5700499626	50.0000000026	0.0000000000	0.0000000000	-26.8661585866	10.0000000000	4.6513671339	29.1041518428	50.0000000000	0.0000000000	0.0000000000	-1.6491000411	20.6100653202	28.5491227092	30.0000000000	20.0000000000	0.0000000000	4.2543337422	10.5862210770	53.0784365203	96.7084300489	14.6229935380	5.1509672187	-0.0220000000	94.5114715297	-0.8276123000	0.0490213000	1.1193398400	-1.0023883700	0.1854440600	1.1299299300	-0.8688404500	0.5012740200	1.1712884500	-0.8855504200	0.1438200100	0.7488554700	-1.0792047100	0.3328539100	0.8003097500	-0.8301770600	0.4179694800	0.7472069100	-0.8606879900	-0.1087586700	0.8996571700	-0.6468931300	-0.1809479800	0.8060591400	-0.9740852700	0.6452341300	0.9519437300	-0.8858206800	0.7476654700	0.7320005500	-0.8553676800	0.0608427900	0.4146926000	-0.7908215900	0.1325942200	0.2933144800	-0.9300488900	0.0472476000	0.1747277400	-1.1336186500	0.0972145700	0.0919551600	-1.1967968800	0.1210697300	0.1216610000	-1.0515711700	0.1573033400	0.0447602900	-0.6343499800	0.4482471600	0.4844693300	-0.6101431900	0.3615978100	0.4269482100	-0.7101964100	0.5236986100	0.2164227600	-0.8202498800	0.5113851300	0.1078574200	-0.8996968400	0.5044696400	0.1160181400	-0.7513129900	0.4377739300	0.0589491700	
